<svg version="1.2" xmlns="http://www.w3.org/2000/svg" viewBox="0 0 100 60" width="100" height="60">
	<title>New Project</title>
	<style>
		.s0 { fill: #008b8b } 
		.s1 { fill: #4a4a4a } 
	</style>
	<g id="Layer 1">
		<path id="UCB" class="s0" aria-label="UCB"  d="m3.4 33.9v-15.1q0-0.7 0.5-1.3 0.6-0.5 1.4-0.5h3.6q0.8 0 1.3 0.5 0.6 0.6 0.6 1.3v15.2q0 2.8 1.2 4.2 1.3 1.4 3.9 1.4h3.1q2.7 0 3.9-1.4 1.3-1.4 1.3-4.2v-15.2q0-0.7 0.5-1.3 0.6-0.5 1.3-0.5h3.7q0.8 0 1.3 0.5 0.6 0.6 0.6 1.3v15.1q0 5.4-3.2 8.3-3.1 3-9.2 3h-3.5q-6 0-9.2-3-3.1-2.9-3.1-8.3zm35.4 7.8q-3.6-3.5-3.6-10.7 0-7.2 3.6-10.7 3.6-3.5 10.9-3.5h4.3q4.4 0 7.8 2.3 3.5 2.3 3.5 6.3 0 1.2-0.7 1.7-0.7 0.5-1.4 0.5h-2.3q-1.8 0-2.8-2.2-1.4-3-4.8-3h-3.5q-4.2 0-5.8 1.8-1.5 1.8-1.5 6.8 0 5 1.5 6.8 1.6 1.8 5.8 1.8h3.9q3.4 0 4.8-3 1-2.2 2.8-2.2h2.4q0.9 0 1.4 0.7 0.5 0.7 0.5 1.5 0 4-3.3 6.3-3.4 2.3-7.9 2.3h-4.7q-7.3 0-10.9-3.5zm30.6 1.5v-24.4q0-0.7 0.6-1.3 0.5-0.5 1.3-0.5h15.9q5.8 0 8.6 3.4 1.5 1.8 1.5 4.7 0 2.9-2.6 5 3.7 2 3.7 6.3 0 4.2-3 6.4-3 2.2-7.3 2.2h-16.8q-0.8 0-1.3-0.5-0.6-0.6-0.6-1.3zm7.4-10.2v6.7h11.2q1.5 0 2.3-0.9 0.8-0.9 0.8-2.4 0-1.6-0.8-2.5-0.8-0.9-2.3-0.9zm0-10.7v5.6h10.4q1.3 0 2-0.8 0.7-0.7 0.7-2 0-1.3-0.7-2.1-0.7-0.7-2-0.7z"/>
		<path id="Shape 3" fill-rule="evenodd" class="s1" d="m87.4 27.9l-0.1 5.1c0.7 0 1.9 0.1 2.5 0.5 0 0 1.1 1 1.2 2 0.1 0.5 0.1 0.9 0.1 0.9l7.3-0.1c0.1-0.8 0-1.5-0.4-2.6-0.3-0.7-0.6-1.2-1.2-2.1-0.5-0.7-1.9-1.4-1.9-1.5 0-0.1 0.9-1 1.2-1.3 0.1-0.2 0.8-1.4 0.9-1.6 0.2-0.6 0.3-2.2 0.3-2.4l-7.3 0.1c0 0.2-0.1 1.1-0.2 1.4 0 0-0.7 1-1 1.1"/>
		<path id="Shape 1" fill-rule="evenodd" class="s1" d="m3.4 19c0-1-0.5-2.2 3.6-2.1 4.1 0 3.7 0.7 3.8 2"/>
		<path id="Shape 1 copy" fill-rule="evenodd" class="s1" d="m24.2 19c0-1-0.3-2.2 3.8-2.1 4.1 0 3.5 0.8 3.6 2"/>
		<path id="Shape 1 copy 2" fill-rule="evenodd" class="s1" d="m58.6 36.4c0.5-0.7 0.7-2 3.3-2.2 3.5-0.3 3.6 1.6 3.7 2.2"/>
		<path id="Shape 1 copy 3" fill-rule="evenodd" class="s1" d="m58.2 25.7c0.5 0.8 1.1 2.5 3.7 2.7 3.5 0.3 3.2-2.2 3.3-2.8"/>
		<path id="Shape 2" fill-rule="evenodd" class="s1" d="m76.8 27.8l10.6 0.1v5.1h-10.6z"/>
	</g>
</svg>